<?xml version="1.0" encoding="UTF-8" standalone="no"?>
<!-- Created with Inkscape (http://www.inkscape.org/) -->

<svg
   xmlns:dc="http://purl.org/dc/elements/1.1/"
   xmlns:cc="http://creativecommons.org/ns#"
   xmlns:rdf="http://www.w3.org/1999/02/22-rdf-syntax-ns#"
   xmlns:svg="http://www.w3.org/2000/svg"
   xmlns="http://www.w3.org/2000/svg"
   xmlns:sodipodi="http://sodipodi.sourceforge.net/DTD/sodipodi-0.dtd"
   xmlns:inkscape="http://www.inkscape.org/namespaces/inkscape"
   width="744.09448819"
   height="1052.3622047"
   id="svg2"
   version="1.1"
   inkscape:version="0.47 r22583"
   sodipodi:docname="logo.svg"
   enable-background="new">
  <defs
     id="defs4">
    <inkscape:perspective
       sodipodi:type="inkscape:persp3d"
       inkscape:vp_x="75.463765 : 682.53095 : 1"
       inkscape:vp_y="0 : 586.28541 : 0"
       inkscape:vp_z="546.58417 : 682.53095 : 1"
       inkscape:persp3d-origin="311.02397 : 579.70018 : 1"
       id="perspective10" />
    <inkscape:perspective
       id="perspective3663"
       inkscape:persp3d-origin="0.5 : 0.33333333 : 1"
       inkscape:vp_z="1 : 0.5 : 1"
       inkscape:vp_y="0 : 1000 : 0"
       inkscape:vp_x="0 : 0.5 : 1"
       sodipodi:type="inkscape:persp3d" />
    <inkscape:perspective
       id="perspective3695"
       inkscape:persp3d-origin="0.5 : 0.33333333 : 1"
       inkscape:vp_z="1 : 0.5 : 1"
       inkscape:vp_y="0 : 1000 : 0"
       inkscape:vp_x="0 : 0.5 : 1"
       sodipodi:type="inkscape:persp3d" />
    <inkscape:perspective
       id="perspective3715"
       inkscape:persp3d-origin="0.5 : 0.33333333 : 1"
       inkscape:vp_z="1 : 0.5 : 1"
       inkscape:vp_y="0 : 1000 : 0"
       inkscape:vp_x="0 : 0.5 : 1"
       sodipodi:type="inkscape:persp3d" />
    <filter
       inkscape:collect="always"
       id="filter3929"
       x="-0.031890429"
       width="1.0637809"
       y="-0.17066496"
       height="1.3413299">
      <feGaussianBlur
         inkscape:collect="always"
         stdDeviation="2.6481514"
         id="feGaussianBlur3931" />
    </filter>
    <inkscape:perspective
       id="perspective3952"
       inkscape:persp3d-origin="0.5 : 0.33333333 : 1"
       inkscape:vp_z="1 : 0.5 : 1"
       inkscape:vp_y="0 : 1000 : 0"
       inkscape:vp_x="0 : 0.5 : 1"
       sodipodi:type="inkscape:persp3d" />
    <inkscape:perspective
       id="perspective3980"
       inkscape:persp3d-origin="0.5 : 0.33333333 : 1"
       inkscape:vp_z="1 : 0.5 : 1"
       inkscape:vp_y="0 : 1000 : 0"
       inkscape:vp_x="0 : 0.5 : 1"
       sodipodi:type="inkscape:persp3d" />
    <inkscape:perspective
       id="perspective4073"
       inkscape:persp3d-origin="0.5 : 0.33333333 : 1"
       inkscape:vp_z="1 : 0.5 : 1"
       inkscape:vp_y="0 : 1000 : 0"
       inkscape:vp_x="0 : 0.5 : 1"
       sodipodi:type="inkscape:persp3d" />
    <inkscape:perspective
       id="perspective4116"
       inkscape:persp3d-origin="0.5 : 0.33333333 : 1"
       inkscape:vp_z="1 : 0.5 : 1"
       inkscape:vp_y="0 : 1000 : 0"
       inkscape:vp_x="0 : 0.5 : 1"
       sodipodi:type="inkscape:persp3d" />
    <inkscape:perspective
       id="perspective4143"
       inkscape:persp3d-origin="0.5 : 0.33333333 : 1"
       inkscape:vp_z="1 : 0.5 : 1"
       inkscape:vp_y="0 : 1000 : 0"
       inkscape:vp_x="0 : 0.5 : 1"
       sodipodi:type="inkscape:persp3d" />
  </defs>
  <sodipodi:namedview
     id="base"
     pagecolor="#ffffff"
     bordercolor="#666666"
     borderopacity="1.0"
     inkscape:pageopacity="0.0"
     inkscape:pageshadow="2"
     inkscape:zoom="1.9841078"
     inkscape:cx="244.96886"
     inkscape:cy="839.98713"
     inkscape:document-units="px"
     inkscape:current-layer="layer3"
     showgrid="false"
     inkscape:window-width="1165"
     inkscape:window-height="770"
     inkscape:window-x="213"
     inkscape:window-y="0"
     inkscape:window-maximized="0">
    <inkscape:grid
       type="xygrid"
       id="grid4179"
       empspacing="5"
       visible="true"
       enabled="true"
       snapvisiblegridlinesonly="true" />
  </sodipodi:namedview>
  <metadata
     id="metadata7">
    <rdf:RDF>
      <cc:Work
         rdf:about="">
        <dc:format>image/svg+xml</dc:format>
        <dc:type
           rdf:resource="http://purl.org/dc/dcmitype/StillImage" />
        <dc:title></dc:title>
      </cc:Work>
    </rdf:RDF>
  </metadata>
  <g
     inkscape:groupmode="layer"
     id="layer3"
     inkscape:label="bg"
     style="opacity:0.5;display:inline">
    <rect
       style="fill:#f5f5f5;fill-opacity:1;stroke:none"
       id="rect3638"
       width="745.05054"
       height="1049.251"
       x="-71.993492"
       y="-47.31702" />
  </g>
  <g
     inkscape:groupmode="layer"
     id="layer6"
     inkscape:label="alt shadow">
    <path
       style="fill:none;stroke:#492200;stroke-width:2.58385587;stroke-linecap:butt;stroke-linejoin:miter;stroke-miterlimit:4;stroke-opacity:1;stroke-dasharray:none"
       d="m 333.83332,305.57025 c 127.41614,-0.82891 127.41614,-0.82891 127.41614,-0.82891"
       id="path4034" />
    <path
       id="path4036"
       d="m 20.18549,306.37025 c 127.41614,-0.82889 127.41614,-0.82889 127.41614,-0.82889"
       style="fill:none;stroke:#9ed1ee;stroke-width:2.58385634;stroke-linecap:butt;stroke-linejoin:miter;stroke-miterlimit:4;stroke-opacity:1;stroke-dasharray:none" />
    <path
       style="fill:none;stroke:#9ed1ee;stroke-width:2.58385634;stroke-linecap:butt;stroke-linejoin:miter;stroke-miterlimit:4;stroke-opacity:1;stroke-dasharray:none"
       d="M 228.84351,227.74549 C 356.25965,226.9166 356.25965,226.9166 356.25965,226.9166"
       id="path4153" />
    <path
       id="path4177"
       d="M 104.45952,202.08021 C 231.87566,201.2513 231.87566,201.2513 231.87566,201.2513"
       style="fill:none;stroke:#492200;stroke-width:2.58385587;stroke-linecap:butt;stroke-linejoin:miter;stroke-miterlimit:4;stroke-opacity:1;stroke-dasharray:none" />
  </g>
  <g
     inkscape:groupmode="layer"
     id="layer4"
     inkscape:label="alt logo">
    <text
       xml:space="preserve"
       style="font-size:40px;font-style:normal;font-weight:normal;fill:#000000;fill-opacity:1;stroke:none;font-family:Bitstream Vera Sans"
       x="208.84177"
       y="254.05919"
       id="text3701"><tspan
         sodipodi:role="line"
         id="tspan3703"
         x="208.84177"
         y="254.05919" /></text>
    <g
       style="font-size:40px;font-style:normal;font-variant:normal;font-weight:normal;font-stretch:normal;text-align:start;line-height:125%;writing-mode:lr-tb;text-anchor:start;fill:#9ed1e8;fill-opacity:1;stroke:none;font-family:URW Gothic L;-inkscape-font-specification:URW Gothic L Book"
       id="text3986"
       transform="translate(-17.819263,66.287659)">
      <path
         d="m 174.91844,234.07656 c -2.28,3.03999 -4.40001,4.24 -7.48,4.24 -4.92,0 -8.8,-3.88001 -8.8,-8.72 0,-4.92 3.8,-8.76 8.68,-8.76 3.23999,0 5.92,1.56 7.6,4.44 l 3.32,0 c -1.76,-4.4 -5.96001,-7.16 -10.88,-7.16 -6.56,0 -11.72,5.04 -11.72,11.4 0,6.51999 5.2,11.52 11.92,11.52 2.71999,0 5.24,-0.88001 7.28,-2.48 1.39999,-1.12 2.24,-2.20001 3.44,-4.48 l -3.36,0"
         id="path3999" />
      <path
         d="m 182.33781,240.51656 2.96,0 0,-12 c 0,-2.36 0.32,-3.76001 1.2,-4.96 1.2,-1.72 3.24,-2.72 5.48,-2.72 2.12,0 4.12,0.92 5.28,2.4 1.04,1.27999 1.48,2.96 1.48,5.52 l 0,11.76 2.96,0 0,-11.76 c 0,-3.28 -0.6,-5.52001 -1.88,-7.24 -1.64,-2.16 -4.4,-3.4 -7.56,-3.4 -3,0 -5.48,1.2 -6.96,3.36 l 0,-10.52 -2.96,0 0,29.56"
         id="path4001" />
      <path
         d="m 206.71281,240.51656 2.96,0 0,-12.76 c 0,-4.08 2.08,-6.32 6.2,-6.72 l 0,-2.92 c -3.16,0.16 -5.04,1.24 -6.2,3.64 l 0,-3.12 -2.96,0 0,21.88"
         id="path4003" />
      <path
         d="m 218.74406,240.51656 2.96,0 0,-21.88 -2.96,0 0,21.88 m 0,-24.52 2.96,0 0,-5.04 -2.96,0 0,5.04"
         style="fill:#9ed1e8;fill-opacity:1"
         id="path4005" />
      <path
         d="m 224.91281,234.07656 c 0.04,4.23999 2.84,6.96 7.04,6.96 3.92,0 6.68,-2.80001 6.68,-6.8 0,-2.68 -1.24,-4.52001 -3.8,-5.6 -3.32,-1.36 -3.48,-1.44 -4.12,-1.76 -1.36,-0.68 -2,-1.60001 -2,-2.88 0,-1.76 1.4,-3.16 3.16,-3.16 1.92,0 3.04,1.12 3.2,3.2 l 3,0 c -0.12,-3.52 -2.64,-5.92 -6.16,-5.92 -3.56,0 -6.2,2.6 -6.2,6.16 0,1.55999 0.56,2.92 1.64,3.92 0.92,0.83999 0.96,0.84 4.04,2.12 1.32,0.52 2.28,1 2.84,1.36 0.88,0.6 1.4,1.64 1.4,2.84 0,2.19999 -1.56,3.8 -3.68,3.8 -2.44,0 -3.96,-1.56001 -4.12,-4.24 l -2.92,0"
         id="path4007" />
      <path
         d="m 275.71344,210.95656 -2.96,0 0,11.16 c -2.16,-2.6 -5.16001,-4 -8.6,-4 -6.6,0 -11.64,4.96 -11.64,11.48 0,6.47999 5.16,11.44 11.92,11.44 3.63999,0 6.12,-1.32001 8.32,-4.48 l 0,3.96 2.96,0 0,-29.56 m -11.64,9.88 c 4.83999,0 8.8,3.88 8.8,8.68 0,4.79999 -3.84001,8.8 -8.52,8.8 -5,0 -8.84,-3.84001 -8.84,-8.84 0,-4.8 3.8,-8.64 8.56,-8.64"
         style="fill:#492200;fill-opacity:1"
         id="path4009" />
      <path
         d="m 280.77531,240.51656 2.96,0 0,-21.88 -2.96,0 0,21.88 m 0,-24.52 2.96,0 0,-5.04 -2.96,0 0,5.04"
         style="fill:#492200;fill-opacity:1"
         id="path4011" />
      <path
         d="m 311.10406,210.95656 -2.96,0 0,11.16 c -2.16,-2.6 -5.16,-4 -8.6,-4 -6.59999,0 -11.64,4.96 -11.64,11.48 0,6.47999 5.16001,11.44 11.92,11.44 3.64,0 6.12,-1.32001 8.32,-4.48 l 0,3.96 2.96,0 0,-29.56 m -11.64,9.88 c 4.84,0 8.8,3.88 8.8,8.68 0,4.79999 -3.84,8.8 -8.52,8.8 -4.99999,0 -8.84,-3.84001 -8.84,-8.84 0,-4.8 3.8,-8.64 8.56,-8.64"
         style="fill:#492200;fill-opacity:1"
         id="path4013" />
      <path
         d="m 318.92594,248.19656 3.16,0 12.64,-29.56 -3.16,0 -7.4,17.44 -6.92,-17.44 -3.24,0 8.48,21.16 -3.56,8.4"
         style="fill:#492200;fill-opacity:1"
         id="path4015" />
      <path
         d="m 337.57219,240.51656 2.96,0 0,-4.52 3.44,-4.24 7.28,8.76 3.68,0 -9.08,-10.88 8.52,-11 -3.64,0 -10.2,13.28 0,-20.96 -2.96,0 0,29.56"
         style="fill:#492200;fill-opacity:1"
         id="path4017" />
    </g>
    <g
       transform="translate(-17.347297,-14.857126)"
       id="g4155"
       style="font-size:40px;font-style:normal;font-variant:normal;font-weight:normal;font-stretch:normal;text-align:start;line-height:125%;writing-mode:lr-tb;text-anchor:start;fill:#9ed1e8;fill-opacity:1;stroke:none;font-family:URW Gothic L;-inkscape-font-specification:URW Gothic L Book">
      <path
         id="path4157"
         d="m 174.91844,234.07656 c -2.28,3.03999 -4.40001,4.24 -7.48,4.24 -4.92,0 -8.8,-3.88001 -8.8,-8.72 0,-4.92 3.8,-8.76 8.68,-8.76 3.23999,0 5.92,1.56 7.6,4.44 l 3.32,0 c -1.76,-4.4 -5.96001,-7.16 -10.88,-7.16 -6.56,0 -11.72,5.04 -11.72,11.4 0,6.51999 5.2,11.52 11.92,11.52 2.71999,0 5.24,-0.88001 7.28,-2.48 1.39999,-1.12 2.24,-2.20001 3.44,-4.48 l -3.36,0" />
      <path
         id="path4159"
         d="m 182.33781,240.51656 2.96,0 0,-12 c 0,-2.36 0.32,-3.76001 1.2,-4.96 1.2,-1.72 3.24,-2.72 5.48,-2.72 2.12,0 4.12,0.92 5.28,2.4 1.04,1.27999 1.48,2.96 1.48,5.52 l 0,11.76 2.96,0 0,-11.76 c 0,-3.28 -0.6,-5.52001 -1.88,-7.24 -1.64,-2.16 -4.4,-3.4 -7.56,-3.4 -3,0 -5.48,1.2 -6.96,3.36 l 0,-10.52 -2.96,0 0,29.56" />
      <path
         id="path4161"
         d="m 206.71281,240.51656 2.96,0 0,-12.76 c 0,-4.08 2.08,-6.32 6.2,-6.72 l 0,-2.92 c -3.16,0.16 -5.04,1.24 -6.2,3.64 l 0,-3.12 -2.96,0 0,21.88" />
      <path
         id="path4163"
         style="fill:#9ed1e8;fill-opacity:1"
         d="m 218.74406,240.51656 2.96,0 0,-21.88 -2.96,0 0,21.88 m 0,-24.52 2.96,0 0,-5.04 -2.96,0 0,5.04" />
      <path
         id="path4165"
         d="m 224.91281,234.07656 c 0.04,4.23999 2.84,6.96 7.04,6.96 3.92,0 6.68,-2.80001 6.68,-6.8 0,-2.68 -1.24,-4.52001 -3.8,-5.6 -3.32,-1.36 -3.48,-1.44 -4.12,-1.76 -1.36,-0.68 -2,-1.60001 -2,-2.88 0,-1.76 1.4,-3.16 3.16,-3.16 1.92,0 3.04,1.12 3.2,3.2 l 3,0 c -0.12,-3.52 -2.64,-5.92 -6.16,-5.92 -3.56,0 -6.2,2.6 -6.2,6.16 0,1.55999 0.56,2.92 1.64,3.92 0.92,0.83999 0.96,0.84 4.04,2.12 1.32,0.52 2.28,1 2.84,1.36 0.88,0.6 1.4,1.64 1.4,2.84 0,2.19999 -1.56,3.8 -3.68,3.8 -2.44,0 -3.96,-1.56001 -4.12,-4.24 l -2.92,0" />
      <path
         id="path4167"
         style="fill:#492200;fill-opacity:1"
         d="m 275.71344,210.95656 -2.96,0 0,11.16 c -2.16,-2.6 -5.16001,-4 -8.6,-4 -6.6,0 -11.64,4.96 -11.64,11.48 0,6.47999 5.16,11.44 11.92,11.44 3.63999,0 6.12,-1.32001 8.32,-4.48 l 0,3.96 2.96,0 0,-29.56 m -11.64,9.88 c 4.83999,0 8.8,3.88 8.8,8.68 0,4.79999 -3.84001,8.8 -8.52,8.8 -5,0 -8.84,-3.84001 -8.84,-8.84 0,-4.8 3.8,-8.64 8.56,-8.64" />
      <path
         id="path4169"
         style="fill:#492200;fill-opacity:1"
         d="m 280.77531,240.51656 2.96,0 0,-21.88 -2.96,0 0,21.88 m 0,-24.52 2.96,0 0,-5.04 -2.96,0 0,5.04" />
      <path
         id="path4171"
         style="fill:#492200;fill-opacity:1"
         d="m 311.10406,210.95656 -2.96,0 0,11.16 c -2.16,-2.6 -5.16,-4 -8.6,-4 -6.59999,0 -11.64,4.96 -11.64,11.48 0,6.47999 5.16001,11.44 11.92,11.44 3.64,0 6.12,-1.32001 8.32,-4.48 l 0,3.96 2.96,0 0,-29.56 m -11.64,9.88 c 4.84,0 8.8,3.88 8.8,8.68 0,4.79999 -3.84,8.8 -8.52,8.8 -4.99999,0 -8.84,-3.84001 -8.84,-8.84 0,-4.8 3.8,-8.64 8.56,-8.64" />
      <path
         id="path4173"
         style="fill:#492200;fill-opacity:1"
         d="m 318.92594,248.19656 3.16,0 12.64,-29.56 -3.16,0 -7.4,17.44 -6.92,-17.44 -3.24,0 8.48,21.16 -3.56,8.4" />
      <path
         id="path4175"
         style="fill:#492200;fill-opacity:1"
         d="m 337.57219,240.51656 2.96,0 0,-4.52 3.44,-4.24 7.28,8.76 3.68,0 -9.08,-10.88 8.52,-11 -3.64,0 -10.2,13.28 0,-20.96 -2.96,0 0,29.56" />
    </g>
  </g>
  <g
     inkscape:groupmode="layer"
     id="layer5"
     inkscape:label="shadow"
     style="display:inline">
    <text
       sodipodi:linespacing="125%"
       id="text3683"
       y="170.08318"
       x="137.27075"
       style="font-size:40px;font-style:normal;font-variant:normal;font-weight:normal;font-stretch:normal;text-align:start;line-height:125%;writing-mode:lr-tb;text-anchor:start;opacity:0.2800001;fill:#0c2e55;fill-opacity:1;stroke:none;display:inline;filter:url(#filter3929);font-family:URW Gothic L;-inkscape-font-specification:URW Gothic L Book"
       xml:space="preserve"><tspan
         y="170.08318"
         x="137.27075"
         id="tspan3685"
         sodipodi:role="line">chris didyk</tspan></text>
  </g>
  <g
     inkscape:groupmode="layer"
     id="layer2"
     inkscape:label="logo text"
     style="display:inline">
    <text
       xml:space="preserve"
       style="font-size:40px;font-style:normal;font-variant:normal;font-weight:normal;font-stretch:normal;text-align:start;line-height:125%;writing-mode:lr-tb;text-anchor:start;fill:#9ed1e8;fill-opacity:1;stroke:none;font-family:URW Gothic L;-inkscape-font-specification:URW Gothic L Book"
       x="134.55798"
       y="166.81715"
       id="text3612"
       sodipodi:linespacing="125%"><tspan
         sodipodi:role="line"
         id="tspan3614"
         x="134.55798"
         y="166.81715">chris didyk</tspan></text>
    <text
       sodipodi:linespacing="125%"
       id="text3940"
       y="166.81715"
       x="134.55798"
       style="font-size:40px;font-style:normal;font-variant:normal;font-weight:normal;font-stretch:normal;text-align:start;line-height:125%;writing-mode:lr-tb;text-anchor:start;fill:#9ed1e8;fill-opacity:1;stroke:none;font-family:URW Gothic L;-inkscape-font-specification:URW Gothic L Book"
       xml:space="preserve"><tspan
         y="166.81715"
         x="134.55798"
         id="tspan3942"
         sodipodi:role="line">chris didyk</tspan></text>
  </g>
</svg>
